<?xml version="1.0" standalone="no"?>
<!DOCTYPE svg PUBLIC "-//W3C//DTD SVG 20010904//EN"
 "http://www.w3.org/TR/2001/REC-SVG-20010904/DTD/svg10.dtd">
<svg version="1.0" xmlns="http://www.w3.org/2000/svg"
 width="126.000000pt" height="60.000000pt" viewBox="0 0 126.000000 60.000000"
 preserveAspectRatio="xMidYMid meet">

<g transform="translate(0.000000,60.000000) scale(0.100000,-0.100000)"
fill="#000000" stroke="none">
<path d="M510 502 c-28 -5 9 -8 100 -8 279 -2 473 -63 523 -166 18 -37 18 -39
0 -75 -33 -68 -151 -127 -310 -154 -37 -7 -133 -12 -213 -13 -125 0 -136 -2
-80 -9 36 -4 117 -6 180 -3 192 8 328 48 408 121 118 106 22 234 -218 290 -80
18 -312 28 -390 17z"/>
<path d="M428 483 c7 -3 16 -2 19 1 4 3 -2 6 -13 5 -11 0 -14 -3 -6 -6z"/>
<path d="M404 455 c-349 -63 -384 -232 -66 -317 61 -16 114 -21 257 -23 l180
-3 -165 8 c-219 11 -358 47 -437 114 -110 93 80 203 387 225 l105 8 -95 1
c-52 0 -127 -6 -166 -13z"/>
<path d="M708 463 c12 -2 32 -2 45 0 12 2 2 4 -23 4 -25 0 -35 -2 -22 -4z"/>
<path d="M292 338 c-33 -33 5 -94 52 -82 30 7 37 45 9 43 -12 0 -13 -2 -5 -6
16 -6 -3 -33 -24 -33 -19 0 -36 37 -29 62 6 17 13 19 44 14 25 -4 31 -2 21 4
-21 13 -54 12 -68 -2z"/>
<path d="M516 336 c4 -10 -2 -16 -18 -18 -42 -6 -30 -68 13 -68 16 0 19 8 19
50 0 28 -4 50 -10 50 -5 0 -7 -6 -4 -14z m4 -51 c0 -25 -23 -35 -35 -15 -10
16 2 40 20 40 9 0 15 -9 15 -25z"/>
<path d="M775 300 c0 -28 3 -50 7 -50 5 0 8 11 8 25 0 21 5 25 31 25 28 0 31
-2 25 -25 -4 -14 -2 -25 4 -25 5 0 10 23 10 50 0 28 -4 50 -9 50 -5 0 -7 -9
-4 -20 5 -17 0 -20 -26 -20 -24 0 -31 4 -31 20 0 11 -3 20 -7 20 -5 0 -8 -23
-8 -50z"/>
<path d="M719 329 c-2 -27 3 -64 9 -71 4 -4 6 11 5 33 -1 39 -12 67 -14 38z"/>
<path d="M980 306 c0 -31 10 -56 21 -56 5 0 4 9 -3 19 -9 15 -9 23 0 34 7 7 9
17 5 20 -13 14 -23 6 -23 -17z"/>
<path d="M413 313 c18 -5 25 -53 8 -53 -15 0 -23 18 -11 23 6 3 5 4 -2 3 -24
-5 -13 -31 15 -34 21 -3 27 1 27 17 0 34 -11 51 -34 50 -16 -1 -17 -2 -3 -6z"/>
<path d="M561 306 c-15 -18 2 -56 24 -56 8 0 15 -5 15 -11 0 -7 -9 -9 -21 -6
-16 4 -19 3 -11 -5 22 -22 42 0 42 47 0 37 -3 45 -19 45 -10 0 -24 -6 -30 -14z
m39 -21 c0 -15 -6 -25 -14 -25 -16 0 -25 19 -18 38 8 22 32 13 32 -13z"/>
<path d="M640 305 c-16 -19 -3 -49 21 -51 9 -1 10 0 2 3 -18 6 -16 53 1 53 8
0 17 -5 19 -10 3 -6 4 -5 3 2 -4 20 -31 21 -46 3z"/>
<path d="M893 290 c2 -31 5 -35 30 -36 24 -1 27 2 27 32 0 19 -4 34 -8 34 -4
0 -8 -12 -7 -27 0 -39 -22 -40 -34 -1 l-10 33 2 -35z"/>
<path d="M428 93 c7 -3 16 -2 19 1 4 3 -2 6 -13 5 -11 0 -14 -3 -6 -6z"/>
</g>
</svg>
